<svg xmlns="http://www.w3.org/2000/svg" viewBox="0 0 1920 1080" preserveAspectRatio="xMidYMid slice">
  <defs>
    <linearGradient id="sky2" x1="0" y1="0" x2="0" y2="1">
      <stop offset="0%" stop-color="#2b1240"/>
      <stop offset="45%" stop-color="#8a3a5c"/>
      <stop offset="75%" stop-color="#e0703f"/>
      <stop offset="100%" stop-color="#f4a83a"/>
    </linearGradient>
    <radialGradient id="sun2" cx="50%" cy="50%" r="50%">
      <stop offset="0%" stop-color="#ffe9b0" stop-opacity="0.95"/>
      <stop offset="100%" stop-color="#ffe9b0" stop-opacity="0"/>
    </radialGradient>
  </defs>
  <rect width="1920" height="1080" fill="url(#sky2)"/>
  <circle cx="960" cy="760" r="260" fill="url(#sun2)"/>
  <circle cx="960" cy="760" r="90" fill="#ffe9b0" opacity="0.9"/>
  <g fill="#1c0f2a">
    <rect x="0" y="900" width="1920" height="180"/>
    <circle cx="960" cy="840" r="150"/>
    <rect x="810" y="840" width="300" height="160"/>
    <rect x="930" y="700" width="60" height="150" rx="10"/>
    <polygon points="960,660 990,700 930,700"/>
    <circle cx="960" cy="648" r="7"/>
    <rect x="300" y="780" width="34" height="220"/>
    <polygon points="317,730 340,780 294,780"/>
    <rect x="1580" y="780" width="34" height="220"/>
    <polygon points="1597,730 1620,780 1574,780"/>
  </g>
</svg>
